<svg id="Layer_1" data-name="Layer 1" xmlns="http://www.w3.org/2000/svg" viewBox="0 0 507.36 93.6"><defs><style>.cls-1{fill:#fefefe;}.cls-2{fill:#e95442;}.cls-3{fill:#2f477d;}.cls-4{fill:#30487e;}.cls-5{fill:#30477d;}.cls-6{fill:#e95543;}.cls-7{fill:#e95544;}.cls-8{fill:#fdfdfd;}.cls-9{fill:#fbfcfc;}.cls-10{fill:#fbfbfc;}</style></defs><path class="cls-1" d="M377.32,501.58V408H884.68v93.6ZM739,476.06a25.28,25.28,0,0,0-3.71-13.45c-7.87-13-25.07-15.05-35.45-4.19a25.91,25.91,0,0,0-.33,34.87,21.87,21.87,0,0,0,30,2.67C735.87,490.92,738.8,484.12,739,476.06Zm-279-12.72c.09.16.15.22.15.28.07,9.57.17,19.15.18,28.73,0,3.44-.32,3.68-3.72,4.06-.12,0-.24,0-.36,0a1.2,1.2,0,0,0-1.31,1.46c.09,1,.62,1.27,1.63,1.26,4.71-.06,9.43-.05,14.14,0,.94,0,1.46-.24,1.53-1.2s-.23-1.48-1.23-1.51c-.52,0-1-.07-1.56-.13a2.48,2.48,0,0,1-2.56-2.61c-.12-1.11-.21-2.23-.24-3.34-.23-8.9-.47-17.79-.66-26.69,0-2.23,0-4.47.17-6.69a2.64,2.64,0,0,1,2.32-2.54,20.62,20.62,0,0,1,2.6-.38c1.1-.09,1.13-.83,1.07-1.63s-.55-1.06-1.38-1.05c-3.19.05-6.39,0-9.58.05a1.27,1.27,0,0,0-.93.7,57.64,57.64,0,0,1-1.84,6c-4.38,9.69-8.88,19.32-13.35,29-.19.41-.43.79-.73,1.32-.25-.47-.43-.78-.57-1.09-4-8.72-8.09-17.42-12.05-26.17-1.31-2.89-2.53-5.86-2.55-9.14,0-.23-.46-.65-.71-.65-3.32-.05-6.63,0-9.94,0-.91,0-1.17.59-1.25,1.3s.09,1.26.95,1.38,1.65.29,2.47.48a2.43,2.43,0,0,1,2.11,2.4c0,1.27.14,2.55.09,3.82-.27,6-.52,12-.9,18.06-.3,4.73-.73,9.46-1.19,14.19-.22,2.26-.79,2.76-3,3.22a13.52,13.52,0,0,1-1.42.22c-.95.11-1.16.74-1,1.55a1.17,1.17,0,0,0,1.34,1.17c4.27-.06,8.54-.05,12.82,0,.85,0,1.31-.28,1.38-1.1s-.12-1.52-1.17-1.57c-.68,0-1.36-.09-2-.16-1.57-.17-2.11-.65-2.33-2.22a15.26,15.26,0,0,1-.2-2.62q.36-12.37.77-24.77c0-1.22.16-2.44.25-3.67,1.1,2.2,2,4.42,2.91,6.62q6.17,14.58,12.39,29.13c.15.37.68.82,1,.79a1.66,1.66,0,0,0,1.13-.8c.47-.87.74-1.85,1.16-2.75q7.47-16.17,15-32.31A3,3,0,0,1,459.92,463.34Zm82.75,14.88c3.53-1,5.71-.13,7.55,2.88,1.71,2.79,3.35,5.62,5.06,8.4a28.45,28.45,0,0,0,6,7.42c3.3,2.71,7.13,3.22,11.19,2.53.39-.06.7-.68,1-1.05-.35-.3-.67-.8-1.07-.88a8.42,8.42,0,0,1-4.55-2.47c-.67-.69-1.35-1.36-2-2.09-4.16-4.79-7.18-10.34-10.42-15.74-.57-1-.44-1.34.56-1.87,5.64-3,8.25-8.45,7-14.48-1-4.91-5-8.34-10.64-9.07-6.7-.86-13.4-.28-20.1.1a1.2,1.2,0,0,0-1.29,1.38c0,.83.35,1.36,1.27,1.4a13.45,13.45,0,0,1,1.42.19c1.76.28,2.27.77,2.43,2.54.12,1.27.2,2.55.2,3.82q0,14.25,0,28.5c0,1.24-.08,2.48-.2,3.71-.16,1.75-.76,2.38-2.47,2.72-.7.13-1.42.24-2.13.32-.92.1-1.06.74-1,1.46s.33,1.25,1.25,1.24c5,0,10.07,0,15.1-.05a1.59,1.59,0,0,0,1.15-.89c.41-1.1-.13-1.68-1.56-1.87-2.89-.38-3.67-.87-3.74-3.24C542.57,488.19,542.67,483.25,542.67,478.22ZM865.51,476c1.09-.7,2.19-1.28,3.16-2a12.4,12.4,0,0,0,4.9-13c-1.05-5.26-4.67-8.06-9.71-9-7.07-1.29-14.19-.52-21.28,0-.37,0-.92.71-1,1.17-.21,1,.42,1.44,1.45,1.55,3.19.31,3.6.79,3.77,4,0,.16,0,.32,0,.48,0,10.78.07,21.56,0,32.34,0,4.37-.77,4.51-4.38,4.88-1.07.11-1.46.61-1.36,1.65s.73,1.11,1.6,1.11q7.2-.06,14.38,0c.91,0,1.47-.16,1.57-1.16s-.25-1.52-1.27-1.6a11.35,11.35,0,0,1-1.42-.23c-1.95-.41-2.55-.87-2.62-2.83-.16-4.82-.17-9.65-.2-14.47a1,1,0,0,1,.51-.78,6,6,0,0,1,6.64,2.19c1.8,2.92,3.43,5.95,5.35,8.79a52.25,52.25,0,0,0,5.72,7.33c3.15,3.22,7.26,3.76,11.56,3.06a1.61,1.61,0,0,0,1.09-1c.2-.77-.52-.83-1.11-1.06a16.15,16.15,0,0,1-3.79-1.88,20.42,20.42,0,0,1-3.33-3.43c-3.91-4.73-6.87-10.08-9.94-15.35A4.11,4.11,0,0,1,865.51,476ZM746,430.09a34.8,34.8,0,0,0-.74-4.34c-1.56-5.22-4.86-8.88-10.24-10.23a12.8,12.8,0,0,0-13,3.91,15.69,15.69,0,0,0,.12,21.47,13.32,13.32,0,0,0,19.11.28A15.76,15.76,0,0,0,746,430.09ZM499.52,480.87v0h5.76a1.35,1.35,0,0,1,1.44,1.13c.54,1.88,1.15,3.73,1.71,5.6.65,2.18,1.32,4.35,1.92,6.54.42,1.54.17,1.88-1.43,2.14-.59.09-1.19.15-1.78.2-1,.07-1.12.74-1.05,1.53s.49,1.15,1.35,1.15c4.83,0,9.66,0,14.5-.05a1.51,1.51,0,0,0,1.08-.79c.46-1.2-.1-1.87-1.72-1.93a4.45,4.45,0,0,1-4.41-3.21c-.52-1.51-1.12-3-1.6-4.5q-5.83-18.4-11.62-36.8c-.52-1.64-1.3-1.83-2.6-.69a10.16,10.16,0,0,0-2.86,4.33c-4.28,12-8.67,24.06-12.9,36.12-1,2.92-2.4,5-5.86,4.84-1,0-1.2.63-1.12,1.45a1.2,1.2,0,0,0,1.41,1.23q6-.07,12,0c.87,0,1.3-.37,1.38-1.14s-.09-1.43-1.08-1.52c-.79-.07-1.58-.21-2.37-.3s-1-.53-.88-1.24a11.3,11.3,0,0,1,.25-1.29c1.15-3.86,2.33-7.7,3.47-11.56a1.54,1.54,0,0,1,1.64-1.26Zm325.85,18.28h0c2.36,0,4.72-.05,7.07,0,1.08,0,1.43-.38,1.46-1.37s-.67-1.38-1.53-1.37c-2.71,0-4.17-1.46-5-3.86-.19-.57-.42-1.12-.6-1.69q-4-12.57-8-25.15c-1.48-4.63-2.9-9.28-4.34-13.91-.47-1.5-1.27-1.73-2.45-.71a9.41,9.41,0,0,0-2.84,4.06c-4.37,12.27-8.83,24.51-13.16,36.79-1,2.77-2.35,4.68-5.58,4.51a.5.5,0,0,0-.35.06c-.32.33-.82.64-.9,1-.21,1.08.36,1.59,1.47,1.59,4,0,7.91,0,11.86,0,.84,0,1.31-.29,1.4-1.11s-.13-1.51-1.16-1.57c-.52,0-1-.09-1.55-.14-1.63-.18-1.93-.5-1.49-2.05,1.18-4.1,2.45-8.17,3.64-12.26a1.52,1.52,0,0,1,1.69-1.18c3.59,0,7.19,0,10.79,0a1.68,1.68,0,0,1,1.82,1.47c1,3.49,2.14,6.93,3.13,10.42.9,3.18,1.29,3.32-2.42,3.67-1,.1-1.6.46-1.48,1.56s.75,1.21,1.69,1.19C820.81,499.11,823.09,499.15,825.37,499.15ZM602,474.32V456.6a2.72,2.72,0,0,1,0-1.07c.16-.34.54-.82.83-.82,2.83,0,5.68-.07,8.49.2,4.08.39,5.08,1.49,5.58,5.61.12,1,.53,1.4,1.46,1.32s1.12-.58,1.18-1.46c.23-3.17.57-6.34.83-9.51,0-.37-.13-1.06-.3-1.09-.48-.09-1.34-.09-1.48.17-.87,1.63-2.32,1.63-3.83,1.63H585.68a7.28,7.28,0,0,1-2.24-.27,2.36,2.36,0,0,1-1.28-1.1c-.32-.71-.75-1.11-1.44-.83a1.84,1.84,0,0,0-.9,1.13c-.69,2.74-1.3,5.5-1.94,8.25-.22.95-1,2.05.51,2.59s1.7-.75,2.1-1.67c1.23-2.86,3.18-4.75,6.48-4.83,2.36-.06,4.71-.13,7.07-.17,1.76,0,1.77,0,1.77,1.79q0,15.56,0,31.13c0,2.07-.16,4.14-.34,6.21a2.43,2.43,0,0,1-2.4,2.38c-1,.1-2,.25-3,.33s-1.13.69-1.09,1.42.31,1.26,1.24,1.26q8.38,0,16.78,0c.93,0,1.19-.52,1.26-1.25s-.07-1.36-1-1.43c-.68,0-1.35-.1-2-.2-2.32-.32-2.94-1-3.11-3.3-.08-1.23-.1-2.47-.1-3.71C602,484.3,602,479.31,602,474.32Zm63.73,25.77c10.75,0,15.66-8.69,13.32-17.61-1-3.93-3.65-6.77-6.88-9.07-2.12-1.5-4.31-2.89-6.45-4.36a11.8,11.8,0,0,1-4.73-5.57c-1.31-3.55.09-7.72,3.06-9.16a8.44,8.44,0,0,1,11.7,4.5,12.36,12.36,0,0,1,.64,1.92c.2.9.78,1,1.53.9a1.08,1.08,0,0,0,1-1.34c-.2-1.9-.39-3.81-.58-5.71-.17-1.73-.72-2.81-2.81-3.16a34.61,34.61,0,0,0-8.78-.84,12.36,12.36,0,0,0-11.2,15.84,16,16,0,0,0,6.46,8.8c2.39,1.74,4.85,3.38,7.25,5.11a10.36,10.36,0,0,1,4.55,9.82,7.07,7.07,0,0,1-5.61,6.62c-4.18.83-7.76-.33-10.22-3.86a31.53,31.53,0,0,1-2.75-5.66c-.3-.7-.66-1.08-1.42-.94s-1.23.57-1.09,1.43c.47,2.82.88,5.66,1.47,8.47a2.84,2.84,0,0,0,1.35,1.63C658.52,499.48,661.73,500,665.76,500.09Zm-276,0c10.27.2,16.73-7.7,14.17-17.4-1.06-4-3.65-6.95-7-9.29-2.12-1.49-4.31-2.88-6.45-4.35a12,12,0,0,1-4.62-5.37c-1.39-3.48-.1-7.74,2.8-9.25a8.46,8.46,0,0,1,11.81,4.2,13.2,13.2,0,0,1,.68,2,1.15,1.15,0,0,0,1.47,1,1.12,1.12,0,0,0,1.1-1.39c-.2-1.9-.38-3.81-.57-5.71a3,3,0,0,0-2.85-3.13,33.18,33.18,0,0,0-8.77-.83,12.4,12.4,0,0,0-11.08,16.22,16.54,16.54,0,0,0,6.59,8.58c2.37,1.69,4.79,3.32,7.15,5a10.27,10.27,0,0,1,4.46,9.39,7.13,7.13,0,0,1-5.67,7c-4.24.83-7.82-.41-10.29-4a30.25,30.25,0,0,1-2.62-5.47c-.31-.73-.65-1.17-1.48-1a1.15,1.15,0,0,0-1,1.45c.47,2.83.88,5.67,1.46,8.47a2.85,2.85,0,0,0,1.37,1.62A19.7,19.7,0,0,0,389.75,500.08Zm376.54-.92c4.92,0,9.83,0,14.74,0,.72,0,1.24-.07,1.46-.86.79-2.92,1.63-5.83,2.42-8.75.18-.69.12-1.38-.78-1.6a1.35,1.35,0,0,0-1.8.86,49.71,49.71,0,0,1-2.56,4.84,3.54,3.54,0,0,1-2.9,1.9c-3.55.08-7.11.19-10.64,0-2.32-.14-3.36-1.52-3.6-3.91-.13-1.31-.2-2.63-.21-3.95q0-13.23,0-26.45c0-1,.05-2.08.12-3.11.25-3.27.63-3.65,4-4a5.93,5.93,0,0,1,.59-.07c1,0,1.22-.59,1.15-1.42s-.39-1.28-1.36-1.27c-5.15,0-10.3,0-15.45,0-1,0-1.28.42-1.34,1.27s.16,1.4,1.14,1.42a15.51,15.51,0,0,1,2.15.22c1.79.32,2.3.81,2.58,2.62a20.1,20.1,0,0,1,.21,3.1q0,14.37,0,28.73a41.81,41.81,0,0,1-.24,5c-.2,1.67-.71,2.11-2.33,2.41a19.11,19.11,0,0,1-2.26.28c-1.07.05-1.33.65-1.26,1.59s.59,1.16,1.46,1.15C756.46,499.15,761.38,499.17,766.29,499.16ZM755,420a18.55,18.55,0,0,0,.42,2.73c1.13,4,3.61,6.85,7.73,7.89a9.59,9.59,0,0,0,10-3.17,11.78,11.78,0,0,0,.37-15.09,9.88,9.88,0,0,0-7.54-3.88C760,408.26,755.12,413.22,755,420Zm29.86,5c0,4.44,3.18,8.19,7.18,8.43a7.86,7.86,0,0,0,8.21-5.93,8.65,8.65,0,0,0-3.87-9.91C791.12,414.62,784.92,418.62,784.9,425Zm25.48,19.71a6.33,6.33,0,0,0-.11-12.64,6.2,6.2,0,0,0-5.88,6.33A6.11,6.11,0,0,0,810.38,444.66Z" transform="translate(-377.32 -407.98)"/><path class="cls-2" d="M739,475.06c-.16,8.06-3.09,14.86-9.51,19.9a21.87,21.87,0,0,1-30-2.67,25.91,25.91,0,0,1,.33-34.87c10.38-10.86,27.58-8.83,35.45,4.19A25.28,25.28,0,0,1,739,475.06Z" transform="translate(-377.32 -407.98)"/><path class="cls-3" d="M459.92,463.34a3,3,0,0,0-.26.4q-7.49,16.15-15,32.31c-.42.9-.69,1.88-1.16,2.75a1.66,1.66,0,0,1-1.13.8c-.33,0-.86-.42-1-.79q-6.24-14.55-12.39-29.13c-.93-2.2-1.81-4.42-2.91-6.62-.09,1.23-.21,2.45-.25,3.67q-.4,12.39-.77,24.77a15.26,15.26,0,0,0,.2,2.62c.22,1.57.76,2.05,2.33,2.22.67.07,1.35.13,2,.16,1.05.05,1.23.74,1.17,1.57s-.53,1.11-1.38,1.1c-4.28,0-8.55-.05-12.82,0a1.17,1.17,0,0,1-1.34-1.17c-.12-.81.09-1.44,1-1.55a13.52,13.52,0,0,0,1.42-.22c2.21-.46,2.78-1,3-3.22.46-4.73.89-9.46,1.19-14.19.38-6,.63-12,.9-18.06.05-1.27,0-2.55-.09-3.82a2.43,2.43,0,0,0-2.11-2.4c-.82-.19-1.64-.36-2.47-.48s-1-.7-.95-1.38.34-1.31,1.25-1.3c3.31,0,6.62,0,9.94,0,.25,0,.71.42.71.65,0,3.28,1.24,6.25,2.55,9.14,4,8.75,8,17.45,12.05,26.17.14.31.32.62.57,1.09.3-.53.54-.91.73-1.32,4.47-9.66,9-19.29,13.35-29a57.64,57.64,0,0,0,1.84-6,1.27,1.27,0,0,1,.93-.7c3.19-.05,6.39,0,9.58-.05.83,0,1.33.18,1.38,1.05s0,1.54-1.07,1.63a20.62,20.62,0,0,0-2.6.38,2.64,2.64,0,0,0-2.32,2.54c-.12,2.22-.21,4.46-.17,6.69.19,8.9.43,17.79.66,26.69,0,1.11.12,2.23.24,3.34a2.48,2.48,0,0,0,2.56,2.61c.52.06,1,.12,1.56.13,1,0,1.29.62,1.23,1.51s-.59,1.21-1.53,1.2c-4.71-.05-9.43-.06-14.14,0-1,0-1.54-.29-1.63-1.26a1.2,1.2,0,0,1,1.31-1.46c.12,0,.24,0,.36,0,3.4-.38,3.72-.62,3.72-4.06,0-9.58-.11-19.16-.18-28.73C460.07,463.56,460,463.5,459.92,463.34Z" transform="translate(-377.32 -407.98)"/><path class="cls-3" d="M542.67,478.22c0,5-.1,10,0,14.91.07,2.37.85,2.86,3.74,3.24,1.43.19,2,.77,1.56,1.87a1.59,1.59,0,0,1-1.15.89c-5,.06-10.06,0-15.1.05-.92,0-1.2-.49-1.25-1.24s.09-1.36,1-1.46c.71-.08,1.43-.19,2.13-.32,1.71-.34,2.31-1,2.47-2.72.12-1.23.2-2.47.2-3.71q0-14.25,0-28.5c0-1.27-.08-2.55-.2-3.82-.16-1.77-.67-2.26-2.43-2.54a13.45,13.45,0,0,0-1.42-.19c-.92,0-1.26-.57-1.27-1.4a1.2,1.2,0,0,1,1.29-1.38c6.7-.38,13.4-1,20.1-.1,5.63.73,9.62,4.16,10.64,9.07,1.26,6-1.35,11.51-7,14.48-1,.53-1.13.92-.56,1.87,3.24,5.4,6.26,10.95,10.42,15.74.63.73,1.31,1.4,2,2.09a8.42,8.42,0,0,0,4.55,2.47c.4.08.72.58,1.07.88-.34.37-.65,1-1,1.05-4.06.69-7.89.18-11.19-2.53a28.45,28.45,0,0,1-6-7.42c-1.71-2.78-3.35-5.61-5.06-8.4C548.38,478.09,546.2,477.27,542.67,478.22Zm-.11-3.39c2.34,0,4.54.14,6.7,0A7.11,7.11,0,0,0,556,469a19,19,0,0,0,.46-5.21c-.23-4.37-2.67-7.79-6.41-8.75a30,30,0,0,0-6.16-.48c-1,0-1.36.52-1.35,1.53.05,3.51,0,7,0,10.53Z" transform="translate(-377.32 -407.98)"/><path class="cls-3" d="M865.51,476a4.11,4.11,0,0,0,.27.74c3.07,5.27,6,10.62,9.94,15.35a20.42,20.42,0,0,0,3.33,3.43,16.15,16.15,0,0,0,3.79,1.88c.59.23,1.31.29,1.11,1.06a1.61,1.61,0,0,1-1.09,1c-4.3.7-8.41.16-11.56-3.06a52.25,52.25,0,0,1-5.72-7.33c-1.92-2.84-3.55-5.87-5.35-8.79a6,6,0,0,0-6.64-2.19,1,1,0,0,0-.51.78c0,4.82,0,9.65.2,14.47.07,2,.67,2.42,2.62,2.83a11.35,11.35,0,0,0,1.42.23c1,.08,1.37.63,1.27,1.6s-.66,1.17-1.57,1.16q-7.18-.06-14.38,0c-.87,0-1.5-.08-1.6-1.11s.29-1.54,1.36-1.65c3.61-.37,4.35-.51,4.38-4.88.09-10.78,0-21.56,0-32.34,0-.16,0-.32,0-.48-.17-3.21-.58-3.69-3.77-4-1-.11-1.66-.52-1.45-1.55.09-.46.64-1.15,1-1.17,7.09-.49,14.21-1.26,21.28,0,5,.92,8.66,3.72,9.71,9a12.4,12.4,0,0,1-4.9,13C867.7,474.76,866.6,475.34,865.51,476Zm-12.46-1.18c2.3,0,4.42.15,6.51,0a7.37,7.37,0,0,0,7.16-6.66,21,21,0,0,0,.21-4.88,9,9,0,0,0-7.07-8.46,29.81,29.81,0,0,0-5.36-.3c-1.09,0-1.47.6-1.46,1.7,0,5.38,0,10.77,0,16.16Z" transform="translate(-377.32 -407.98)"/><path class="cls-2" d="M746,430.09a15.76,15.76,0,0,1-4.73,11.09,13.32,13.32,0,0,1-19.11-.28,15.69,15.69,0,0,1-.12-21.47,12.8,12.8,0,0,1,13-3.91c5.38,1.35,8.68,5,10.24,10.23A34.8,34.8,0,0,1,746,430.09Z" transform="translate(-377.32 -407.98)"/><path class="cls-3" d="M499.52,480.87h-5.39a1.54,1.54,0,0,0-1.64,1.26c-1.14,3.86-2.32,7.7-3.47,11.56a11.3,11.3,0,0,0-.25,1.29c-.13.71.09,1.16.88,1.24s1.58.23,2.37.3c1,.09,1.17.76,1.08,1.52s-.51,1.15-1.38,1.14q-6-.06-12,0a1.2,1.2,0,0,1-1.41-1.23c-.08-.82.16-1.49,1.12-1.45,3.46.17,4.83-1.92,5.86-4.84,4.23-12.06,8.62-24.07,12.9-36.12a10.16,10.16,0,0,1,2.86-4.33c1.3-1.14,2.08-.95,2.6.69q5.81,18.39,11.62,36.8c.48,1.51,1.08,3,1.6,4.5a4.45,4.45,0,0,0,4.41,3.21c1.62.06,2.18.73,1.72,1.93a1.51,1.51,0,0,1-1.08.79c-4.84.05-9.67,0-14.5.05-.86,0-1.28-.34-1.35-1.15s.05-1.46,1.05-1.53c.59-.05,1.19-.11,1.78-.2,1.6-.26,1.85-.6,1.43-2.14-.6-2.19-1.27-4.36-1.92-6.54-.56-1.87-1.17-3.72-1.71-5.6a1.35,1.35,0,0,0-1.44-1.13h-5.76Zm-5.31-3.8h11l-5.07-16.36-.33,0Z" transform="translate(-377.32 -407.98)"/><path class="cls-3" d="M825.37,499.15c-2.28,0-4.56,0-6.83,0-.94,0-1.58-.16-1.69-1.19s.5-1.46,1.48-1.56c3.71-.35,3.32-.49,2.42-3.67-1-3.49-2.12-6.93-3.13-10.42a1.68,1.68,0,0,0-1.82-1.47c-3.6,0-7.2,0-10.79,0a1.52,1.52,0,0,0-1.69,1.18c-1.19,4.09-2.46,8.16-3.64,12.26-.44,1.55-.14,1.87,1.49,2.05.51,0,1,.11,1.55.14,1,.06,1.25.72,1.16,1.57s-.56,1.11-1.4,1.11c-4,0-7.91,0-11.86,0-1.11,0-1.68-.51-1.47-1.59.08-.4.58-.71.9-1a.5.5,0,0,1,.35-.06c3.23.17,4.61-1.74,5.58-4.51,4.33-12.28,8.79-24.52,13.16-36.79a9.41,9.41,0,0,1,2.84-4.06c1.18-1,2-.79,2.45.71,1.44,4.63,2.86,9.28,4.34,13.91q4,12.58,8,25.15c.18.57.41,1.12.6,1.69.79,2.4,2.25,3.9,5,3.86.86,0,1.57.25,1.53,1.37s-.38,1.41-1.46,1.37c-2.35-.08-4.71,0-7.07,0ZM805,477H816c-1.74-5.6-3.4-11-5.07-16.36h-.3C808.74,466.08,806.89,471.51,805,477Z" transform="translate(-377.32 -407.98)"/><path class="cls-4" d="M602,474.32c0,5,0,10,0,15,0,1.24,0,2.48.1,3.71.17,2.33.79,3,3.11,3.3.68.1,1.35.16,2,.2.94.07,1.09.7,1,1.43s-.33,1.26-1.26,1.25q-8.4,0-16.78,0c-.93,0-1.21-.53-1.24-1.26s.17-1.35,1.09-1.42,2-.23,3-.33a2.43,2.43,0,0,0,2.4-2.38c.18-2.07.33-4.14.34-6.21q0-15.57,0-31.13c0-1.79,0-1.82-1.77-1.79-2.36,0-4.71.11-7.07.17-3.3.08-5.25,2-6.48,4.83-.4.92-.61,2.19-2.1,1.67s-.73-1.64-.51-2.59c.64-2.75,1.25-5.51,1.94-8.25a1.84,1.84,0,0,1,.9-1.13c.69-.28,1.12.12,1.44.83a2.36,2.36,0,0,0,1.28,1.1,7.28,7.28,0,0,0,2.24.27h29.14c1.51,0,3,0,3.83-1.63.14-.26,1-.26,1.48-.17.17,0,.33.72.3,1.09-.26,3.17-.6,6.34-.83,9.51-.06.88-.31,1.39-1.18,1.46s-1.34-.37-1.46-1.32c-.5-4.12-1.5-5.22-5.58-5.61-2.81-.27-5.66-.2-8.49-.2-.29,0-.67.48-.83.82a2.72,2.72,0,0,0,0,1.07Z" transform="translate(-377.32 -407.98)"/><path class="cls-3" d="M665.76,500.09c-4-.06-7.24-.61-10.17-2.24a2.84,2.84,0,0,1-1.35-1.63c-.59-2.81-1-5.65-1.47-8.47-.14-.86.33-1.28,1.09-1.43s1.12.24,1.42.94a31.53,31.53,0,0,0,2.75,5.66c2.46,3.53,6,4.69,10.22,3.86a7.07,7.07,0,0,0,5.61-6.62,10.36,10.36,0,0,0-4.55-9.82c-2.4-1.73-4.86-3.37-7.25-5.11a16,16,0,0,1-6.46-8.8,12.36,12.36,0,0,1,11.2-15.84,34.61,34.61,0,0,1,8.78.84c2.09.35,2.64,1.43,2.81,3.16.19,1.9.38,3.81.58,5.71a1.08,1.08,0,0,1-1,1.34c-.75.12-1.33,0-1.53-.9a12.36,12.36,0,0,0-.64-1.92,8.44,8.44,0,0,0-11.7-4.5c-3,1.44-4.37,5.61-3.06,9.16a11.8,11.8,0,0,0,4.73,5.57c2.14,1.47,4.33,2.86,6.45,4.36,3.23,2.3,5.85,5.14,6.88,9.07C681.42,491.4,676.51,500.11,665.76,500.09Z" transform="translate(-377.32 -407.98)"/><path class="cls-3" d="M389.75,500.08a19.7,19.7,0,0,1-9.35-2.21,2.85,2.85,0,0,1-1.37-1.62c-.58-2.8-1-5.64-1.46-8.47a1.15,1.15,0,0,1,1-1.45c.83-.16,1.17.28,1.48,1a30.25,30.25,0,0,0,2.62,5.47c2.47,3.57,6.05,4.81,10.29,4a7.13,7.13,0,0,0,5.67-7,10.27,10.27,0,0,0-4.46-9.39c-2.36-1.72-4.78-3.35-7.15-5a16.54,16.54,0,0,1-6.59-8.58,12.4,12.4,0,0,1,11.08-16.22,33.18,33.18,0,0,1,8.77.83,3,3,0,0,1,2.85,3.13c.19,1.9.37,3.81.57,5.71a1.12,1.12,0,0,1-1.1,1.39,1.15,1.15,0,0,1-1.47-1,13.2,13.2,0,0,0-.68-2,8.46,8.46,0,0,0-11.81-4.2c-2.9,1.51-4.19,5.77-2.8,9.25A12,12,0,0,0,390.5,469c2.14,1.47,4.33,2.86,6.45,4.35,3.32,2.34,5.91,5.27,7,9.29C406.48,492.38,400,500.28,389.75,500.08Z" transform="translate(-377.32 -407.98)"/><path class="cls-5" d="M766.29,499.16c-4.91,0-9.83,0-14.74,0-.87,0-1.38-.22-1.46-1.15s.19-1.54,1.26-1.59a19.11,19.11,0,0,0,2.26-.28c1.62-.3,2.13-.74,2.33-2.41a41.81,41.81,0,0,0,.24-5q0-14.37,0-28.73a20.1,20.1,0,0,0-.21-3.1c-.28-1.81-.79-2.3-2.58-2.62a15.51,15.51,0,0,0-2.15-.22c-1,0-1.2-.58-1.14-1.42s.38-1.28,1.34-1.27c5.15,0,10.3,0,15.45,0,1,0,1.29.45,1.36,1.27s-.18,1.41-1.15,1.42a5.93,5.93,0,0,0-.59.07c-3.33.34-3.71.72-4,4-.07,1-.12,2.07-.12,3.11q0,13.23,0,26.45c0,1.32.08,2.64.21,3.95.24,2.39,1.28,3.77,3.6,3.91,3.53.21,7.09.1,10.64,0a3.54,3.54,0,0,0,2.9-1.9,49.71,49.71,0,0,0,2.56-4.84,1.35,1.35,0,0,1,1.8-.86c.9.22,1,.91.78,1.6-.79,2.92-1.63,5.83-2.42,8.75-.22.79-.74.86-1.46.86C776.12,499.15,771.21,499.16,766.29,499.16Z" transform="translate(-377.32 -407.98)"/><path class="cls-6" d="M755,420c.08-6.76,5-11.72,11-11.52a9.88,9.88,0,0,1,7.54,3.88,11.78,11.78,0,0,1-.37,15.09,9.59,9.59,0,0,1-10,3.17c-4.12-1-6.6-3.87-7.73-7.89A18.55,18.55,0,0,1,755,420Z" transform="translate(-377.32 -407.98)"/><path class="cls-6" d="M784.9,425c0-6.33,6.22-10.33,11.52-7.41a8.65,8.65,0,0,1,3.87,9.91,7.86,7.86,0,0,1-8.21,5.93C788.08,433.14,784.88,429.39,784.9,425Z" transform="translate(-377.32 -407.98)"/><path class="cls-7" d="M810.38,444.66a6.11,6.11,0,0,1-6-6.31,5.95,5.95,0,1,1,11.87,0A6.14,6.14,0,0,1,810.38,444.66Z" transform="translate(-377.32 -407.98)"/><path class="cls-8" d="M542.56,474.83v-8.22c0-3.51,0-7,0-10.53,0-1,.38-1.57,1.35-1.53a30,30,0,0,1,6.16.48c3.74,1,6.18,4.38,6.41,8.75A19,19,0,0,1,556,469a7.11,7.11,0,0,1-6.74,5.81C547.1,475,544.9,474.83,542.56,474.83Z" transform="translate(-377.32 -407.98)"/><path class="cls-8" d="M853.05,474.86v-2.48c0-5.39,0-10.78,0-16.16,0-1.1.37-1.72,1.46-1.7a29.81,29.81,0,0,1,5.36.3,9,9,0,0,1,7.07,8.46,21,21,0,0,1-.21,4.88,7.37,7.37,0,0,1-7.16,6.66C857.47,475,855.35,474.86,853.05,474.86Z" transform="translate(-377.32 -407.98)"/><path class="cls-9" d="M494.21,477.07l5.57-16.38.33,0,5.07,16.36Z" transform="translate(-377.32 -407.98)"/><path class="cls-10" d="M805,477c1.87-5.51,3.72-10.94,5.57-16.37h.3c1.67,5.38,3.33,10.76,5.07,16.36Z" transform="translate(-377.32 -407.98)"/></svg>